<svg xmlns="http://www.w3.org/2000/svg" width="3.06" height="8.31" viewBox="0 0 3.06 8.31">
  <title>Element 5</title>
  <g id="a37fca23-0e1a-4c63-9c18-42b3d9f979b2" data-name="Ebene 2">
    <g id="ac0f69bb-9efa-4c42-a5c9-2d71665eae51" data-name="Ebene 1">
      <path d="M3.06,8.31a4.74,4.74,0,0,0-.39-.37,3.47,3.47,0,0,0-.5-.39l-1-.75L.63,6.41a2.19,2.19,0,0,1-.34-.35A.94.94,0,0,1,0,5.42a.86.86,0,0,1,.39-.75,1.47,1.47,0,0,1,.89-.28,2.23,2.23,0,0,1,1.35.44V0h.43ZM2.63,5.42a.94.94,0,0,0-.85-.59.6.6,0,0,0-.26,0L1.34,5c-.05.07-.1.14-.14.21a.57.57,0,0,0-.06.27,1.39,1.39,0,0,0,.4.91,1.41,1.41,0,0,0,.2.24,3.58,3.58,0,0,1,.3.28l.59.59Z"/>
    </g>
  </g>
</svg>
