<svg xmlns="http://www.w3.org/2000/svg" width="8.37" height="6.41" viewBox="0 0 8.37 6.41">
  <title>note</title>
  <g id="ff3d0b5e-2786-4144-8398-454118968975" data-name="Ebene 2">
    <g id="b228d5a3-eabf-41ef-a2b3-10374d45f026" data-name="Ebene 1">
      <path d="M8.34,2.84a3.77,3.77,0,0,1-1.09,2A5.41,5.41,0,0,1,4.94,6.16a6.06,6.06,0,0,1-2.54.2A3.2,3.2,0,0,1,.58,5.45,2,2,0,0,1,0,3.68a3.57,3.57,0,0,1,1.13-2,9.81,9.81,0,0,1,1-.71C2.61.7,3.05.48,3.53.25A7.29,7.29,0,0,1,4.86,0,5.29,5.29,0,0,1,6,.05,3.43,3.43,0,0,1,7.91,1,3.06,3.06,0,0,1,8.34,2.84Z"/>
    </g>
  </g>
</svg>
